<?xml version="1.0" encoding="UTF-8" standalone="no"?>
<!DOCTYPE svg PUBLIC "-//W3C//DTD SVG 1.1//EN" "http://www.w3.org/Graphics/SVG/1.1/DTD/svg11.dtd">
<svg width="100%" height="100%" viewBox="0 0 1024 1024" version="1.1" xmlns="http://www.w3.org/2000/svg" xmlns:xlink="http://www.w3.org/1999/xlink" xml:space="preserve" xmlns:serif="http://www.serif.com/" style="fill-rule:evenodd;clip-rule:evenodd;stroke-linecap:round;stroke-linejoin:round;stroke-miterlimit:1.5;">
    <g transform="matrix(11.3661,0,0,19.5069,44,44)">
        <g id="Shadow">
            <path d="M85.87,4.823L85.87,45.21C85.87,47.872 82.161,50.033 77.592,50.033L8.277,50.033C3.709,50.033 0,47.872 0,45.21L0,4.823C0,2.161 3.709,0 8.277,0L77.592,0C82.161,0 85.87,2.161 85.87,4.823Z" style="fill-opacity:0.7;"/>
        </g>
    </g>
    <g id="Logo-and-Text" serif:id="Logo and Text" transform="matrix(1,0,0,1,-10,-10)">
        <clipPath id="_clip1">
            <path d="M997.5,118.577L997.5,905.423C997.5,956.242 956.242,997.5 905.423,997.5L118.577,997.5C67.758,997.5 26.5,956.242 26.5,905.423L26.5,118.577C26.5,67.758 67.758,26.5 118.577,26.5L905.423,26.5C956.242,26.5 997.5,67.758 997.5,118.577Z"/>
        </clipPath>
        <g clip-path="url(#_clip1)">
            <g id="BG--White-" serif:id="BG (White)">
                <rect x="-16" y="-16" width="1056" height="1056" style="fill:white;"/>
            </g>
            <g id="BG--Gradient-Blue-" serif:id="BG (Gradient Blue)">
                <rect x="-16" y="-16" width="1056" height="1056" style="fill:url(#_Radial2);"/>
            </g>
            <g id="Markdown-Logo" serif:id="Markdown Logo" transform="matrix(0.48,0,0,0.48,512,258)">
                <g transform="matrix(1,0,0,1,-1066.67,-1066.67)">
                    <g transform="matrix(133.333,0,0,133.333,0,0)">
                        <path d="M6.345,5L8.445,5L8.445,11.533L6.993,11.533L7.048,6.223L5.274,11.533L4.072,11.533L2.267,6.223C2.307,6.867 2.327,11.533 2.327,11.533L1,11.533L1,5L3.156,5C3.156,5 4.684,9.493 4.733,9.807L6.345,5ZM13.055,8.617L13.055,4.967L11.11,4.967L11.11,8.617L9.166,8.617L12.083,11.533L15,8.617L13.055,8.617Z" style="fill-rule:nonzero;"/>
                    </g>
                </g>
            </g>
            <g transform="matrix(1,0,0,1,0,-64)">
                <g id="Reader">
                    <g>
                        <g transform="matrix(1,0,0,0.966979,1.1191e-13,31.7003)">
                            <rect x="0" y="662.165" width="1024" height="297.835"/>
                        </g>
                        <g transform="matrix(3.11779,0,0,3.11779,-14.4185,-2143.53)">
                            <g transform="matrix(80,0,0,80,24.1363,974.952)">
                                <path d="M0.02,-0L0.02,-0.041C0.042,-0.045 0.058,-0.05 0.069,-0.055C0.08,-0.061 0.085,-0.066 0.085,-0.07L0.085,-0.56L0.02,-0.551L0.013,-0.601C0.048,-0.608 0.088,-0.615 0.131,-0.621C0.174,-0.627 0.22,-0.63 0.268,-0.63C0.314,-0.63 0.354,-0.626 0.386,-0.619C0.418,-0.611 0.444,-0.601 0.464,-0.587C0.484,-0.574 0.499,-0.558 0.508,-0.54C0.517,-0.522 0.521,-0.503 0.521,-0.482C0.521,-0.46 0.518,-0.439 0.511,-0.421C0.504,-0.402 0.495,-0.385 0.483,-0.37C0.471,-0.355 0.457,-0.341 0.44,-0.33C0.423,-0.318 0.405,-0.309 0.385,-0.302L0.541,-0.097C0.546,-0.09 0.551,-0.085 0.555,-0.081C0.56,-0.076 0.565,-0.073 0.57,-0.071C0.575,-0.069 0.582,-0.068 0.589,-0.067C0.596,-0.067 0.606,-0.067 0.617,-0.068L0.625,-0.028C0.614,-0.024 0.601,-0.02 0.587,-0.016C0.572,-0.012 0.558,-0.009 0.544,-0.005C0.53,-0.002 0.516,0.001 0.504,0.003C0.492,0.006 0.482,0.007 0.476,0.007C0.467,0.007 0.457,0.004 0.448,-0.001C0.44,-0.006 0.433,-0.013 0.428,-0.02L0.291,-0.284C0.288,-0.283 0.285,-0.283 0.282,-0.283L0.274,-0.283C0.265,-0.283 0.257,-0.284 0.249,-0.284C0.24,-0.285 0.231,-0.287 0.222,-0.289L0.222,-0.07C0.222,-0.066 0.227,-0.062 0.237,-0.056C0.247,-0.05 0.264,-0.045 0.288,-0.041L0.288,-0L0.02,-0ZM0.245,-0.574C0.242,-0.574 0.226,-0.574 0.222,-0.574L0.222,-0.347C0.231,-0.346 0.239,-0.345 0.245,-0.344C0.252,-0.344 0.258,-0.344 0.266,-0.344C0.286,-0.344 0.304,-0.347 0.319,-0.352C0.333,-0.358 0.345,-0.366 0.355,-0.377C0.364,-0.387 0.371,-0.4 0.375,-0.415C0.38,-0.43 0.382,-0.448 0.382,-0.467C0.382,-0.481 0.38,-0.494 0.376,-0.507C0.372,-0.52 0.365,-0.532 0.355,-0.542C0.345,-0.552 0.331,-0.56 0.313,-0.565C0.295,-0.571 0.273,-0.574 0.245,-0.574Z" style="fill:white;fill-rule:nonzero;"/>
                            </g>
                            <g transform="matrix(80,0,0,80,73.7066,974.952)">
                                <path d="M0.515,-0.158C0.513,-0.144 0.512,-0.129 0.51,-0.113C0.509,-0.096 0.507,-0.08 0.505,-0.065C0.503,-0.05 0.501,-0.037 0.499,-0.025C0.497,-0.013 0.496,-0.005 0.495,-0L0.02,-0L0.02,-0.041C0.042,-0.045 0.058,-0.05 0.069,-0.055C0.08,-0.061 0.085,-0.066 0.085,-0.07L0.085,-0.544C0.085,-0.548 0.08,-0.553 0.07,-0.559C0.06,-0.565 0.043,-0.57 0.02,-0.575L0.02,-0.615L0.462,-0.615L0.483,-0.598C0.482,-0.59 0.481,-0.579 0.48,-0.565C0.479,-0.551 0.477,-0.537 0.475,-0.523C0.473,-0.509 0.471,-0.495 0.469,-0.482C0.467,-0.47 0.465,-0.46 0.463,-0.454L0.421,-0.454C0.42,-0.484 0.416,-0.508 0.409,-0.526C0.403,-0.543 0.393,-0.552 0.381,-0.552L0.222,-0.552L0.222,-0.359L0.415,-0.359L0.433,-0.34C0.43,-0.336 0.427,-0.33 0.423,-0.324C0.419,-0.318 0.415,-0.312 0.411,-0.305C0.407,-0.299 0.403,-0.293 0.399,-0.288C0.395,-0.283 0.391,-0.279 0.388,-0.276C0.383,-0.281 0.378,-0.285 0.372,-0.289C0.366,-0.292 0.36,-0.295 0.352,-0.297C0.345,-0.299 0.336,-0.301 0.326,-0.302C0.316,-0.303 0.305,-0.303 0.291,-0.303L0.222,-0.303L0.222,-0.095C0.222,-0.09 0.223,-0.086 0.226,-0.082C0.228,-0.078 0.233,-0.075 0.24,-0.072C0.247,-0.069 0.257,-0.067 0.27,-0.066C0.283,-0.064 0.3,-0.063 0.322,-0.063L0.365,-0.063C0.38,-0.063 0.393,-0.066 0.404,-0.07C0.414,-0.074 0.424,-0.08 0.432,-0.089C0.44,-0.098 0.447,-0.109 0.454,-0.123C0.461,-0.136 0.467,-0.153 0.474,-0.172L0.515,-0.158Z" style="fill:white;fill-rule:nonzero;"/>
                            </g>
                            <g transform="matrix(80,0,0,80,116.519,974.952)">
                                <path d="M0.363,-0.271L0.284,-0.49L0.214,-0.271L0.363,-0.271ZM0.193,-0.208L0.149,-0.074C0.146,-0.064 0.149,-0.056 0.16,-0.052C0.171,-0.047 0.19,-0.043 0.217,-0.041L0.217,-0L0,-0L0,-0.041C0.022,-0.044 0.039,-0.049 0.05,-0.053C0.062,-0.057 0.069,-0.064 0.072,-0.074L0.239,-0.584C0.248,-0.592 0.258,-0.599 0.268,-0.605C0.279,-0.611 0.29,-0.616 0.301,-0.621C0.312,-0.626 0.323,-0.63 0.334,-0.634C0.345,-0.637 0.355,-0.64 0.365,-0.643L0.57,-0.074C0.571,-0.069 0.573,-0.065 0.576,-0.062C0.578,-0.058 0.582,-0.055 0.586,-0.052C0.591,-0.05 0.596,-0.047 0.603,-0.045C0.61,-0.043 0.618,-0.042 0.629,-0.041L0.629,-0L0.374,-0L0.374,-0.041C0.399,-0.042 0.416,-0.045 0.425,-0.05C0.434,-0.055 0.437,-0.063 0.433,-0.074L0.385,-0.208L0.193,-0.208Z" style="fill:white;fill-rule:nonzero;"/>
                            </g>
                            <g transform="matrix(80,0,0,80,167.652,974.952)">
                                <path d="M0.612,-0.33C0.612,-0.289 0.608,-0.253 0.599,-0.221C0.591,-0.189 0.58,-0.161 0.565,-0.136C0.551,-0.111 0.534,-0.091 0.514,-0.073C0.495,-0.056 0.474,-0.042 0.452,-0.031C0.43,-0.021 0.406,-0.013 0.383,-0.008C0.359,-0.003 0.335,-0 0.312,-0L0.02,-0L0.02,-0.041C0.042,-0.045 0.058,-0.05 0.069,-0.055C0.08,-0.061 0.085,-0.066 0.085,-0.07L0.085,-0.56L0.02,-0.551L0.013,-0.601C0.029,-0.604 0.049,-0.608 0.072,-0.612C0.095,-0.615 0.12,-0.619 0.145,-0.621C0.17,-0.624 0.195,-0.626 0.221,-0.628C0.247,-0.629 0.27,-0.63 0.292,-0.63C0.343,-0.63 0.389,-0.623 0.429,-0.61C0.468,-0.596 0.502,-0.576 0.529,-0.551C0.556,-0.525 0.577,-0.494 0.591,-0.457C0.605,-0.419 0.612,-0.377 0.612,-0.33ZM0.255,-0.574C0.25,-0.574 0.245,-0.574 0.239,-0.574C0.233,-0.574 0.228,-0.574 0.222,-0.573L0.222,-0.093C0.222,-0.087 0.222,-0.082 0.223,-0.078C0.224,-0.073 0.226,-0.069 0.231,-0.066C0.235,-0.063 0.242,-0.06 0.251,-0.058C0.261,-0.057 0.274,-0.056 0.292,-0.056C0.309,-0.056 0.328,-0.06 0.348,-0.07C0.369,-0.079 0.388,-0.094 0.405,-0.115C0.422,-0.135 0.436,-0.162 0.448,-0.194C0.46,-0.226 0.465,-0.265 0.465,-0.311C0.465,-0.398 0.448,-0.464 0.412,-0.508C0.377,-0.552 0.324,-0.574 0.255,-0.574Z" style="fill:white;fill-rule:nonzero;"/>
                            </g>
                            <g transform="matrix(80,0,0,80,219.761,974.952)">
                                <path d="M0.515,-0.158C0.513,-0.144 0.512,-0.129 0.51,-0.113C0.509,-0.096 0.507,-0.08 0.505,-0.065C0.503,-0.05 0.501,-0.037 0.499,-0.025C0.497,-0.013 0.496,-0.005 0.495,-0L0.02,-0L0.02,-0.041C0.042,-0.045 0.058,-0.05 0.069,-0.055C0.08,-0.061 0.085,-0.066 0.085,-0.07L0.085,-0.544C0.085,-0.548 0.08,-0.553 0.07,-0.559C0.06,-0.565 0.043,-0.57 0.02,-0.575L0.02,-0.615L0.462,-0.615L0.483,-0.598C0.482,-0.59 0.481,-0.579 0.48,-0.565C0.479,-0.551 0.477,-0.537 0.475,-0.523C0.473,-0.509 0.471,-0.495 0.469,-0.482C0.467,-0.47 0.465,-0.46 0.463,-0.454L0.421,-0.454C0.42,-0.484 0.416,-0.508 0.409,-0.526C0.403,-0.543 0.393,-0.552 0.381,-0.552L0.222,-0.552L0.222,-0.359L0.415,-0.359L0.433,-0.34C0.43,-0.336 0.427,-0.33 0.423,-0.324C0.419,-0.318 0.415,-0.312 0.411,-0.305C0.407,-0.299 0.403,-0.293 0.399,-0.288C0.395,-0.283 0.391,-0.279 0.388,-0.276C0.383,-0.281 0.378,-0.285 0.372,-0.289C0.366,-0.292 0.36,-0.295 0.352,-0.297C0.345,-0.299 0.336,-0.301 0.326,-0.302C0.316,-0.303 0.305,-0.303 0.291,-0.303L0.222,-0.303L0.222,-0.095C0.222,-0.09 0.223,-0.086 0.226,-0.082C0.228,-0.078 0.233,-0.075 0.24,-0.072C0.247,-0.069 0.257,-0.067 0.27,-0.066C0.283,-0.064 0.3,-0.063 0.322,-0.063L0.365,-0.063C0.38,-0.063 0.393,-0.066 0.404,-0.07C0.414,-0.074 0.424,-0.08 0.432,-0.089C0.44,-0.098 0.447,-0.109 0.454,-0.123C0.461,-0.136 0.467,-0.153 0.474,-0.172L0.515,-0.158Z" style="fill:white;fill-rule:nonzero;"/>
                            </g>
                            <g transform="matrix(80,0,0,80,262.574,974.952)">
                                <path d="M0.02,-0L0.02,-0.041C0.042,-0.045 0.058,-0.05 0.069,-0.055C0.08,-0.061 0.085,-0.066 0.085,-0.07L0.085,-0.56L0.02,-0.551L0.013,-0.601C0.048,-0.608 0.088,-0.615 0.131,-0.621C0.174,-0.627 0.22,-0.63 0.268,-0.63C0.314,-0.63 0.354,-0.626 0.386,-0.619C0.418,-0.611 0.444,-0.601 0.464,-0.587C0.484,-0.574 0.499,-0.558 0.508,-0.54C0.517,-0.522 0.521,-0.503 0.521,-0.482C0.521,-0.46 0.518,-0.439 0.511,-0.421C0.504,-0.402 0.495,-0.385 0.483,-0.37C0.471,-0.355 0.457,-0.341 0.44,-0.33C0.423,-0.318 0.405,-0.309 0.385,-0.302L0.541,-0.097C0.546,-0.09 0.551,-0.085 0.555,-0.081C0.56,-0.076 0.565,-0.073 0.57,-0.071C0.575,-0.069 0.582,-0.068 0.589,-0.067C0.596,-0.067 0.606,-0.067 0.617,-0.068L0.625,-0.028C0.614,-0.024 0.601,-0.02 0.587,-0.016C0.572,-0.012 0.558,-0.009 0.544,-0.005C0.53,-0.002 0.516,0.001 0.504,0.003C0.492,0.006 0.482,0.007 0.476,0.007C0.467,0.007 0.457,0.004 0.448,-0.001C0.44,-0.006 0.433,-0.013 0.428,-0.02L0.291,-0.284C0.288,-0.283 0.285,-0.283 0.282,-0.283L0.274,-0.283C0.265,-0.283 0.257,-0.284 0.249,-0.284C0.24,-0.285 0.231,-0.287 0.222,-0.289L0.222,-0.07C0.222,-0.066 0.227,-0.062 0.237,-0.056C0.247,-0.05 0.264,-0.045 0.288,-0.041L0.288,-0L0.02,-0ZM0.245,-0.574C0.242,-0.574 0.226,-0.574 0.222,-0.574L0.222,-0.347C0.231,-0.346 0.239,-0.345 0.245,-0.344C0.252,-0.344 0.258,-0.344 0.266,-0.344C0.286,-0.344 0.304,-0.347 0.319,-0.352C0.333,-0.358 0.345,-0.366 0.355,-0.377C0.364,-0.387 0.371,-0.4 0.375,-0.415C0.38,-0.43 0.382,-0.448 0.382,-0.467C0.382,-0.481 0.38,-0.494 0.376,-0.507C0.372,-0.52 0.365,-0.532 0.355,-0.542C0.345,-0.552 0.331,-0.56 0.313,-0.565C0.295,-0.571 0.273,-0.574 0.245,-0.574Z" style="fill:white;fill-rule:nonzero;"/>
                            </g>
                        </g>
                    </g>
                </g>
            </g>
        </g>
    </g>
    <g transform="matrix(11.3661,0,0,19.5069,14,14)">
        <g id="Border">
            <path d="M85.87,4.823L85.87,45.21C85.87,47.872 82.161,50.033 77.592,50.033L8.277,50.033C3.709,50.033 0,47.872 0,45.21L0,4.823C0,2.161 3.709,0 8.277,0L77.592,0C82.161,0 85.87,2.161 85.87,4.823Z" style="fill:none;stroke:black;stroke-width:1.34px;"/>
        </g>
    </g>
    <defs>
        <radialGradient id="_Radial2" cx="0" cy="0" r="1" gradientUnits="userSpaceOnUse" gradientTransform="matrix(722.256,723.164,-723.164,722.256,10,10)"><stop offset="0" style="stop-color:white;stop-opacity:1"/><stop offset="0.53" style="stop-color:rgb(198,212,255);stop-opacity:1"/><stop offset="1" style="stop-color:rgb(0,64,255);stop-opacity:1"/></radialGradient>
    </defs>
</svg>
